<?xml version="1.0" encoding="UTF-8"?>
<svg width="21px" height="21px" viewBox="0 0 21 21" version="1.1" xmlns="http://www.w3.org/2000/svg" xmlns:xlink="http://www.w3.org/1999/xlink">
    <!-- Generator: Sketch 46.2 (44496) - http://www.bohemiancoding.com/sketch -->
    <title>velo-yellow</title>
    <desc>Created with Sketch.</desc>
    <defs></defs>
    <g id="Page-1" stroke="none" stroke-width="1" fill="none" fill-rule="evenodd">
        <g id="velo-yellow" fill-rule="nonzero">
            <circle id="Oval-7-Copy-4" fill="#FFFFFF" cx="10.5" cy="10.5" r="10.5"></circle>
            <circle id="Oval-9-Copy-2" fill="#268CEB" cx="10.5" cy="10.5" r="9.5"></circle>
            <path d="M13,5 L14,5.5 L14,7 L9,7 L9,6 L10,6 L10,5.5 L9,5 L7,5 L7,6 L8,6 L8,7 L6.75,9.125 C6.50461,9.06012 6.26579,9 6,9 C4.34314,9 3,10.34314 3,12 C3,13.65686 4.34314,15 6,15 C7.65686,15 9,13.65686 9,12 L10,12 L12.5,8 L14,8 L14.53125,9.0625 C13.10342,9.29297 12,10.50713 12,12 C12,13.65685 13.34315,15 15,15 C16.65685,15 18,13.65685 18,12 C18,10.56061 16.97744,9.35339 15.625,9.0625 L15,7.5 L15,5 L14.5,4.5 L13,4 L13,5 Z M8.5,8 L11.5,8 L9.5,11 L8.8125,11 C8.60043,10.40881 8.22517,9.88432 7.71875,9.53125 L8.5,8 L8.5,8 Z M6,10.25 C6.9665,10.25 7.75,11.0335 7.75,12 C7.75,12.9665 6.9665,13.75 6,13.75 C5.0335,13.75 4.25,12.9665 4.25,12 C4.25,11.0335 5.0335,10.25 6,10.25 L6,10.25 Z M15,10.25 C15.9665,10.25 16.75,11.0335 16.75,12 C16.75,12.9665 15.9665,13.75 15,13.75 C14.0335,13.75 13.25,12.9665 13.25,12 C13.25,11.0335 14.0335,10.25 15,10.25 L15,10.25 Z" id="path5430-copy" fill="#FFFFFF"></path>
        </g>
    </g>
</svg>